<svg xmlns="http://www.w3.org/2000/svg" viewBox="0 0 1024 594" role="img" aria-label="Band">
  <path fill="#008c45" fill-rule="evenodd" d="M742.7 297a230.7 230.7 0 0 1-461.4 0 230.7 230.7 0 1 1 461.4 0z"/>
  <path fill="#ffc20f" fill-rule="evenodd" d="M512 0C222.8.3 61.8 192 9.8 268.7c-6.7 10-10 19-9.8 28.2 0 9 3 18.2 9.8 28C61.8 402 222.8 593.6 512 594c289.2-.3 450.2-192 502.2-268.7 6.7-9.8 10-19 9.8-28 0-9.2-3-18.3-9.8-28.3C962.2 192 801.2.3 512 0zm0 33.2c-202.8 0-324.8 167.6-323 263.7-1.8 96 120.2 263.5 323 263.5S836.8 393 835 297C836.7 200.7 714.7 33 512 33z"/>
</svg>
